<svg width="24" height="24" viewBox="0 0 24 24" fill="none" xmlns="http://www.w3.org/2000/svg">
<path d="M22.2806 16.7194C22.3504 16.789 22.4057 16.8717 22.4434 16.9628C22.4812 17.0538 22.5006 17.1514 22.5006 17.25C22.5006 17.3485 22.4812 17.4461 22.4434 17.5372C22.4057 17.6282 22.3504 17.711 22.2806 17.7806L20.0306 20.0306C19.9257 20.1356 19.792 20.2071 19.6465 20.2361C19.5009 20.2651 19.35 20.2503 19.2129 20.1934C19.0758 20.1366 18.9586 20.0404 18.8762 19.917C18.7938 19.7935 18.7499 19.6484 18.75 19.5V18C17.6908 17.9851 16.6499 17.7217 15.7111 17.2309C14.7724 16.7401 13.962 16.0357 13.3453 15.1744L9.43406 9.69936C8.94789 9.01973 8.30677 8.46573 7.56382 8.08326C6.82088 7.70078 5.99749 7.50083 5.16188 7.49998H3C2.80109 7.49998 2.61032 7.42096 2.46967 7.28031C2.32902 7.13966 2.25 6.94889 2.25 6.74998C2.25 6.55107 2.32902 6.3603 2.46967 6.21965C2.61032 6.079 2.80109 5.99998 3 5.99998H5.16188C6.23615 6.00087 7.29474 6.25773 8.24996 6.74928C9.20518 7.24083 10.0295 7.95292 10.6547 8.82654L14.5659 14.3015C15.0434 14.9691 15.6704 15.5157 16.397 15.8974C17.1235 16.2792 17.9294 16.4856 18.75 16.5V15C18.7499 14.8516 18.7938 14.7064 18.8762 14.583C18.9586 14.4595 19.0758 14.3633 19.2129 14.3065C19.35 14.2497 19.5009 14.2348 19.6465 14.2638C19.792 14.2928 19.9257 14.3643 20.0306 14.4694L22.2806 16.7194ZM13.4062 10.0312C13.4864 10.0885 13.577 10.1294 13.673 10.1516C13.7689 10.1738 13.8683 10.1769 13.9655 10.1607C14.0626 10.1445 14.1557 10.1094 14.2392 10.0572C14.3228 10.0051 14.3953 9.93701 14.4525 9.85686L14.565 9.70029C15.0423 9.03222 15.6695 8.48523 16.3962 8.10314C17.1229 7.72105 17.9291 7.51448 18.75 7.49998V8.99998C18.7499 9.1484 18.7938 9.29352 18.8762 9.41697C18.9586 9.54041 19.0758 9.63663 19.2129 9.69345C19.35 9.75026 19.5009 9.76512 19.6465 9.73613C19.792 9.70714 19.9257 9.63561 20.0306 9.53061L22.2806 7.28061C22.3504 7.21095 22.4057 7.12823 22.4434 7.03719C22.4812 6.94614 22.5006 6.84854 22.5006 6.74998C22.5006 6.65142 22.4812 6.55382 22.4434 6.46278C22.4057 6.37173 22.3504 6.28901 22.2806 6.21936L20.0306 3.96936C19.9257 3.86435 19.792 3.79282 19.6465 3.76383C19.5009 3.73485 19.35 3.7497 19.2129 3.80651C19.0758 3.86333 18.9586 3.95955 18.8762 4.08299C18.7938 4.20644 18.7499 4.35156 18.75 4.49998V5.99998C17.6908 6.01486 16.6499 6.2783 15.7111 6.7691C14.7724 7.25989 13.962 7.96431 13.3453 8.82561L13.2328 8.98217C13.1751 9.06235 13.1338 9.15315 13.1112 9.24935C13.0887 9.34556 13.0854 9.44526 13.1015 9.54275C13.1176 9.64023 13.1528 9.73357 13.2051 9.8174C13.2574 9.90123 13.3258 9.9739 13.4062 10.0312ZM10.5938 13.9687C10.5136 13.9115 10.423 13.8706 10.327 13.8484C10.2311 13.8261 10.1317 13.823 10.0345 13.8392C9.93736 13.8554 9.84434 13.8906 9.76078 13.9427C9.67722 13.9949 9.60475 14.063 9.5475 14.1431L9.435 14.2997C8.94883 14.9796 8.30761 15.5339 7.56448 15.9165C6.82136 16.2992 5.99773 16.4992 5.16188 16.5H3C2.80109 16.5 2.61032 16.579 2.46967 16.7197C2.32902 16.8603 2.25 17.0511 2.25 17.25C2.25 17.4489 2.32902 17.6397 2.46967 17.7803C2.61032 17.921 2.80109 18 3 18H5.16188C6.23615 17.9991 7.29474 17.7422 8.24996 17.2507C9.20518 16.7591 10.0295 16.047 10.6547 15.1734L10.7672 15.0169C10.8248 14.9367 10.866 14.846 10.8884 14.7499C10.9109 14.6538 10.9142 14.5542 10.898 14.4568C10.8819 14.3594 10.8468 14.2662 10.7945 14.1824C10.7423 14.0987 10.6741 14.0261 10.5938 13.9687Z" fill="white"/>
</svg>
